<svg xmlns="http://www.w3.org/2000/svg" version="1.0" width="945.000000pt" height="756.000000pt" viewBox="0 0 945.000000 756.000000" preserveAspectRatio="xMidYMid meet">

<g transform="translate(0.000000,756.000000) scale(0.100000,-0.100000)" fill="#000000" stroke="none">
<path d="M10 5115 l0 -2445 4715 0 4715 0 0 -1330 0 -1330 -4717 -3 -4718 -2 4723 -3 4722 -2 0 3780 0 3780 -4720 0 -4720 0 0 -2445z m8248 2399 c9 -11 28 -42 42 -71 14 -29 30 -52 35 -53 6 0 22 -18 35 -41 14 -23 37 -54 53 -69 15 -15 27 -33 27 -39 0 -7 4 -10 9 -6 5 3 12 -4 16 -15 3 -11 11 -20 16 -20 6 0 7 -5 4 -11 -4 -5 0 -18 8 -27 9 -9 17 -24 19 -32 2 -8 13 -22 24 -32 12 -9 27 -31 34 -48 7 -16 16 -30 21 -30 5 0 9 -6 9 -13 0 -6 24 -40 54 -74 30 -35 57 -71 61 -82 3 -10 12 -22 20 -25 8 -3 15 -15 15 -26 0 -11 6 -20 14 -20 8 0 16 -10 20 -22 5 -23 65 -95 75 -91 3 1 5 -4 3 -12 -1 -7 2 -16 8 -20 5 -3 10 -15 10 -26 0 -10 4 -19 8 -19 5 0 15 -11 22 -25 7 -14 19 -25 25 -25 7 0 15 -13 18 -29 4 -17 14 -30 27 -34 12 -3 18 -11 14 -20 -3 -8 1 -21 8 -28 25 -26 68 -88 68 -97 0 -5 11 -15 25 -22 13 -7 28 -23 31 -34 4 -12 15 -28 25 -37 11 -9 19 -24 19 -33 0 -9 11 -26 25 -38 14 -12 25 -28 25 -35 0 -8 4 -11 10 -8 6 3 7 -1 4 -9 -3 -9 -1 -16 5 -16 14 0 51 -37 51 -51 0 -18 40 -69 55 -69 7 0 15 -8 19 -17 6 -21 28 -56 38 -63 7 -6 13 -286 10 -461 -2 -81 -4 -87 -24 -92 -22 -6 -22 -6 -4 8 11 8 15 15 9 15 -6 0 -13 8 -16 19 -3 13 -12 18 -31 16 -22 -3 -26 0 -21 15 5 15 2 17 -17 13 -18 -4 -20 -2 -9 5 12 9 12 13 2 26 -10 12 -10 16 -2 16 7 0 10 4 6 10 -3 5 -13 6 -23 3 -15 -6 -15 -4 -4 9 12 14 10 16 -10 11 -13 -3 -20 -3 -16 2 4 4 2 12 -3 19 -42 50 -49 62 -49 83 0 38 -18 65 -40 58 -15 -5 -18 -2 -15 15 2 12 -2 23 -10 26 -7 3 -16 23 -20 44 -5 28 -12 40 -28 44 -18 5 -20 8 -7 16 12 8 8 10 -15 11 -24 1 -25 3 -7 6 29 6 28 19 -3 27 -14 4 -25 13 -25 21 0 8 -4 15 -10 15 -5 0 -10 9 -10 21 0 14 -5 19 -15 16 -8 -4 -17 -2 -20 3 -4 6 -2 10 2 10 14 0 10 45 -4 59 -10 9 -13 7 -13 -11 0 -23 0 -23 -13 2 -8 15 -9 28 -4 31 5 4 0 12 -12 18 -11 7 -21 21 -21 31 0 12 -7 20 -16 20 -10 0 -14 6 -11 14 4 9 1 13 -7 10 -7 -3 -19 7 -26 21 -12 23 -12 28 0 35 12 8 11 10 -6 10 -24 0 -59 45 -57 72 1 11 -3 15 -13 11 -10 -4 -14 3 -14 28 0 25 -3 30 -9 20 -8 -12 -11 -9 -16 12 -4 15 -13 27 -21 27 -8 0 -14 4 -14 10 0 5 8 6 18 3 16 -7 16 -6 0 17 -9 14 -21 24 -27 23 -6 -2 -11 2 -11 7 0 6 -7 10 -15 10 -9 0 -18 8 -22 18 -3 9 -15 27 -25 38 -10 12 -18 27 -16 35 2 8 -7 15 -20 17 -12 2 -20 8 -16 13 3 6 -2 17 -12 24 -11 8 -15 15 -10 15 5 0 -1 11 -14 26 -18 18 -21 27 -12 33 9 5 7 13 -7 28 -11 11 -17 23 -14 27 3 3 -6 11 -21 17 -14 7 -26 18 -26 26 0 7 -5 13 -11 13 -6 0 -9 7 -5 15 3 8 0 14 -7 12 -7 -1 -11 7 -9 19 1 11 -7 29 -18 39 -19 18 -20 18 -20 -1 0 -14 -4 -11 -15 11 -9 17 -23 36 -32 42 -15 11 -15 13 0 19 24 9 21 27 -3 19 -14 -4 -20 -2 -20 9 0 8 -8 20 -17 25 -10 6 -14 11 -9 11 6 0 0 9 -12 20 -12 12 -22 27 -22 35 0 7 -13 29 -30 47 -16 18 -29 37 -28 43 1 5 -14 27 -35 49 -40 42 -67 89 -67 117 0 20 -16 35 -22 19 -2 -7 -11 -5 -23 4 -20 15 -20 15 3 16 12 0 22 5 22 10 0 6 -11 10 -24 10 -24 0 -43 29 -37 58 1 7 -4 11 -11 10 -6 -2 -12 2 -13 9 0 7 -6 18 -12 25 -7 6 -13 18 -13 25 0 7 -4 13 -10 13 -5 0 -10 9 -10 19 0 25 41 30 188 26 86 -2 106 -6 120 -21z m-318 12 c0 -3 -4 -8 -10 -11 -5 -3 -10 -1 -10 4 0 6 5 11 10 11 6 0 10 -2 10 -4z m-2290 -717 c260 -41 440 -304 376 -549 -8 -30 -17 -62 -20 -70 -4 -10 8 -23 41 -40 152 -80 245 -270 214 -437 -23 -125 -91 -229 -188 -291 -42 -26 -936 -382 -960 -382 -5 0 -114 267 -241 593 -128 325 -252 642 -276 704 l-43 111 451 177 c393 153 496 189 566 194 8 0 44 -4 80 -10z m3045 -419 c3 -5 1 -10 -4 -10 -6 0 -11 5 -11 10 0 6 2 10 4 10 3 0 8 -4 11 -10z m-4400 -145 c94 -24 182 -74 249 -140 195 -193 210 -494 35 -714 -40 -50 -41 -53 -23 -66 11 -7 117 -83 236 -167 120 -84 217 -156 218 -159 0 -5 -238 -100 -276 -111 -6 -2 -111 68 -234 156 l-222 158 -238 -92 -238 -93 36 -91 c20 -50 57 -145 83 -211 26 -66 44 -123 41 -127 -14 -14 -216 -88 -223 -81 -10 12 -552 1403 -548 1407 12 11 795 313 849 327 81 22 178 24 255 4z m-1242 -1219 c339 -302 615 -552 611 -555 -3 -3 -64 -29 -137 -57 -109 -43 -135 -50 -147 -39 -8 7 -181 159 -384 339 -203 180 -372 324 -376 319 -4 -4 -28 -226 -54 -493 -26 -267 -51 -494 -56 -506 -5 -14 -46 -35 -141 -72 -73 -29 -133 -51 -135 -49 -1 1 161 1655 166 1685 1 8 73 -55 653 -572z m3323 275 c-3 -4 -26 -16 -51 -25 -41 -16 -44 -19 -34 -39 7 -12 13 -23 14 -25 2 -2 20 4 40 12 44 19 45 19 45 7 0 -5 -18 -16 -39 -25 -32 -12 -38 -19 -34 -36 8 -30 18 -32 59 -15 41 17 54 19 54 7 0 -9 -88 -43 -105 -41 -12 1 -68 139 -60 148 9 9 88 40 103 40 7 1 11 -3 8 -8z m-132 -122 c28 -75 31 -89 18 -89 -4 0 -14 15 -20 34 l-13 34 -42 -16 c-23 -9 -43 -16 -45 -17 -1 -1 5 -19 13 -39 12 -28 13 -37 4 -34 -12 4 -69 129 -69 150 0 21 20 4 30 -26 l11 -35 45 17 c32 12 44 21 40 32 -16 50 -17 60 -8 60 5 0 21 -32 36 -71z m-186 -17 c3 -9 -3 -11 -20 -7 -31 8 -78 -28 -78 -59 0 -34 37 -76 66 -76 14 0 36 11 49 24 25 25 38 25 28 0 -7 -19 -55 -44 -83 -44 -32 0 -80 53 -80 87 0 51 46 95 94 90 11 -1 21 -8 24 -15z m-173 -59 c38 -95 54 -144 44 -141 -10 3 -46 81 -64 138 -8 25 10 27 20 3z m-42 -81 c43 -108 48 -107 -100 -19 l-32 18 24 -62 c29 -72 28 -69 16 -69 -7 0 -24 36 -68 148 -9 22 20 12 87 -28 35 -22 66 -38 67 -36 2 2 -5 27 -17 55 -23 59 -23 61 -12 61 5 0 21 -30 35 -68z m-193 -12 c16 -10 8 -13 -27 -10 -13 1 -34 -10 -49 -25 -30 -30 -27 -68 8 -97 27 -24 49 -23 82 3 32 25 41 21 21 -8 -34 -48 -114 -36 -142 21 -14 29 -14 39 -3 66 19 47 76 72 110 50z m-170 -60 c0 -5 -4 -10 -9 -10 -5 0 -25 -7 -45 -15 -33 -14 -35 -17 -25 -38 6 -12 13 -23 14 -25 1 -1 18 5 38 13 42 17 47 18 47 7 0 -5 -18 -16 -39 -24 -33 -13 -39 -20 -34 -37 8 -31 16 -33 58 -15 56 23 67 10 12 -15 -27 -11 -54 -21 -60 -21 -10 0 -26 34 -63 132 -5 14 4 22 37 37 50 22 69 25 69 11z m-164 -67 c-14 -7 -26 -15 -26 -16 0 -2 11 -32 25 -67 29 -73 28 -70 16 -70 -5 0 -20 28 -34 63 -25 60 -26 62 -59 59 -42 -5 -30 7 35 34 55 22 88 20 43 -3z m-196 -71 c0 -4 -19 -15 -42 -24 -33 -11 -42 -20 -40 -34 6 -31 17 -35 55 -19 42 17 47 18 47 7 0 -5 -18 -16 -41 -25 -35 -14 -40 -19 -34 -39 10 -32 9 -32 60 -13 25 10 48 15 52 12 6 -7 -80 -47 -102 -47 -11 0 -65 119 -65 143 0 9 77 45 98 46 6 1 12 -3 12 -7z m-150 -59 c0 -5 -11 -43 -24 -85 -13 -43 -20 -78 -16 -78 4 0 24 7 43 15 40 17 67 20 52 7 -15 -13 -118 -53 -123 -48 -4 4 27 115 44 161 5 13 -2 12 -46 -5 -31 -12 -50 -16 -48 -9 2 6 24 20 48 29 50 20 70 24 70 13z m-137 -121 c25 -63 32 -92 23 -92 -2 0 -35 18 -72 40 -38 22 -70 36 -72 32 -1 -5 7 -30 18 -56 23 -54 23 -56 11 -56 -5 0 -22 34 -39 75 -36 89 -30 93 60 39 32 -20 61 -34 64 -31 3 2 -4 28 -16 56 -23 59 -23 61 -12 61 5 0 21 -30 35 -68z m-198 -12 c-3 -5 -24 -15 -45 -21 -42 -13 -46 -19 -30 -50 10 -18 13 -18 47 -4 40 17 53 19 53 7 0 -5 -18 -15 -41 -22 -36 -12 -40 -16 -34 -39 9 -35 7 -34 53 -15 54 21 79 12 28 -10 -82 -34 -81 -35 -110 41 -14 38 -26 73 -26 79 0 5 19 17 43 26 49 19 71 22 62 8z m-205 -145 c13 -36 30 -65 36 -65 6 0 28 7 48 15 20 8 36 11 36 6 0 -4 -22 -18 -50 -29 -57 -24 -53 -27 -89 68 -23 60 -25 70 -13 70 4 0 19 -29 32 -65z m-67 -4 c24 -67 22 -106 -5 -125 -29 -21 -61 -20 -85 2 -26 23 -65 120 -52 128 6 3 13 -4 16 -16 3 -11 15 -40 27 -63 26 -52 65 -62 91 -24 15 23 14 28 -5 76 -22 56 -24 71 -12 71 4 0 15 -22 25 -49z m-183 -40 c0 -6 -17 -11 -37 -13 -31 -2 -39 -7 -41 -25 -3 -21 0 -23 47 -23 78 0 105 -40 55 -79 -27 -22 -84 -29 -84 -11 0 6 15 10 34 10 37 0 62 21 52 45 -4 10 -20 15 -54 15 -70 0 -98 41 -50 74 24 17 78 22 78 7z m-109 -143 c23 -60 15 -61 -71 -9 -36 22 -67 38 -69 36 -2 -3 7 -29 19 -60 12 -31 20 -59 16 -62 -8 -8 -8 -9 -40 75 -16 40 -26 76 -23 79 3 3 37 -12 74 -33 37 -22 71 -40 75 -42 4 -2 -3 23 -16 55 -13 32 -21 62 -18 68 6 9 12 -4 53 -107z m-198 -9 c42 -52 6 -139 -59 -139 -46 0 -63 9 -80 42 -33 63 18 135 86 124 19 -3 43 -15 53 -27z m-196 -45 c2 -7 -5 -10 -21 -7 -29 6 -76 -35 -76 -65 0 -29 38 -72 64 -72 13 0 35 10 50 21 33 26 46 19 17 -10 -63 -63 -165 -7 -146 80 11 49 100 91 112 53z m-429 -157 c-47 -20 -57 -37 -40 -65 7 -10 16 -9 45 3 42 17 47 18 47 7 0 -5 -18 -15 -40 -22 -22 -7 -40 -15 -40 -17 0 -4 20 -45 25 -51 1 -1 19 5 39 13 21 9 43 14 49 12 7 -2 -4 -11 -24 -19 -71 -31 -78 -31 -88 -6 -5 13 -18 47 -30 76 l-21 53 42 19 c24 10 52 18 63 18 12 0 0 -9 -27 -21z m225 -7 c-13 -13 -63 -23 -63 -13 0 11 52 32 63 25 5 -2 5 -8 0 -12z m-320 -102 c29 -77 33 -98 17 -82 -8 8 -60 137 -60 149 0 3 3 5 8 5 4 0 20 -33 35 -72z m-83 45 c0 -5 -11 -44 -25 -88 -14 -44 -25 -81 -25 -82 0 -2 23 6 50 17 28 11 50 16 50 11 0 -9 -110 -54 -117 -47 -3 2 6 41 20 85 14 45 21 81 17 81 -4 0 -26 -7 -49 -15 -60 -21 -50 -1 12 23 59 23 67 25 67 15z m-140 -125 c13 -35 25 -69 27 -75 3 -7 1 -13 -3 -13 -8 0 -25 38 -60 133 -3 9 -2 17 4 17 5 0 20 -28 32 -62z m-74 7 c15 -23 15 -27 1 -48 -15 -23 -14 -25 21 -45 27 -16 32 -22 17 -21 -11 0 -29 6 -39 14 -22 17 -62 20 -70 6 -4 -5 -2 -21 4 -35 5 -14 6 -27 1 -30 -4 -3 -21 30 -38 72 l-30 77 36 17 c52 24 78 22 97 -7z m-166 -30 c0 -3 -21 -15 -46 -25 -39 -17 -44 -23 -38 -42 9 -33 10 -33 54 -15 23 9 42 11 46 6 3 -5 1 -9 -4 -9 -5 0 -26 -7 -46 -15 -33 -14 -35 -17 -24 -40 13 -29 17 -30 65 -10 41 17 43 18 43 7 0 -9 -99 -47 -105 -40 -3 2 -18 36 -34 75 l-29 71 51 20 c56 22 67 25 67 17z m5468 -11 c148 -61 179 -255 59 -361 -19 -17 -41 -33 -49 -35 -9 -3 8 -36 55 -106 l67 -102 -65 0 -66 0 -61 95 -61 95 -104 0 -103 0 0 -95 0 -95 -50 0 -50 0 0 310 0 310 195 0 c154 0 204 -3 233 -16z m628 0 c103 -49 141 -177 79 -268 -21 -32 -22 -34 -5 -57 65 -89 37 -210 -61 -259 -34 -18 -59 -20 -254 -20 l-215 0 0 310 0 310 211 0 c173 0 217 -3 245 -16z m-1261 -266 c76 -150 146 -288 157 -305 l20 -33 -65 0 -64 0 -94 185 c-52 102 -96 185 -99 185 -3 0 -47 -83 -98 -185 l-92 -185 -60 0 c-33 0 -60 3 -60 7 0 13 305 603 312 603 3 0 68 -123 143 -272z m-4980 196 c27 -27 15 -66 -28 -89 -21 -11 -35 -25 -32 -32 3 -7 8 -20 11 -28 3 -8 2 -15 -3 -15 -9 0 -63 124 -63 143 0 10 59 36 82 37 9 0 24 -7 33 -16z m4871 -366 c17 -29 44 -75 59 -103 l28 -50 -61 60 -62 59 -62 -59 c-34 -33 -55 -49 -47 -35 9 14 35 60 59 103 24 42 47 77 50 77 3 0 19 -24 36 -52z m-257 -262 c13 -16 -10 -41 -31 -33 -8 4 -7 6 4 6 27 1 31 20 6 30 -15 7 -17 10 -7 10 9 1 22 -5 28 -13z m54 7 c-27 -5 -31 -22 -5 -24 16 -1 16 -2 0 -6 -25 -6 -22 -21 5 -26 19 -4 18 -4 -5 -6 -26 -1 -28 2 -28 34 0 32 2 35 28 34 23 -2 24 -2 5 -6z m82 -29 c1 -28 -1 -29 -22 -20 -28 13 -30 26 -3 19 14 -4 20 0 20 12 0 12 -6 16 -20 12 -11 -3 -20 -1 -20 5 0 5 10 8 23 6 17 -2 22 -10 22 -34z m105 33 c0 -2 -11 -18 -25 -37 -14 -19 -25 -29 -25 -23 0 6 7 16 15 23 20 16 19 27 -2 33 -11 3 -7 5 10 6 15 0 27 0 27 -2z m73 -4 c-13 -2 -23 -9 -23 -14 0 -5 10 -10 23 -10 l22 -2 -22 -4 c-13 -2 -23 -8 -23 -13 0 -5 10 -11 23 -13 19 -4 18 -4 -5 -6 -24 -1 -28 3 -28 27 0 34 7 42 34 41 19 -2 19 -2 -1 -6z m167 -6 c-14 -8 -27 -12 -30 -10 -7 6 23 23 40 23 8 0 4 -6 -10 -13z m104 -9 c8 -14 7 -22 -8 -35 -18 -17 -18 -17 -5 4 16 26 1 50 -25 40 -18 -7 -22 -43 -6 -50 6 -3 5 -4 -2 -3 -18 4 -22 34 -7 52 15 18 38 15 53 -8z m124 15 c-24 -6 -23 -20 2 -28 22 -7 26 -20 10 -30 -6 -4 -9 -2 -8 4 2 5 -6 16 -16 24 -21 16 -14 38 12 36 15 -1 15 -2 0 -6z m140 -56 c12 -3 10 -5 -5 -6 -20 -1 -23 3 -21 37 1 36 1 36 5 5 3 -19 11 -34 21 -36z m65 56 c-27 -5 -31 -22 -5 -24 16 -1 16 -2 0 -6 -25 -6 -22 -21 5 -26 19 -4 18 -4 -5 -6 -26 -1 -28 2 -28 34 0 32 2 35 28 34 23 -2 24 -2 5 -6z m157 1 c0 -12 -35 -64 -43 -64 -5 0 1 12 13 27 l22 28 -24 6 c-22 7 -22 7 5 8 15 1 27 -2 27 -5z m53 -1 c-13 -2 -23 -9 -23 -14 0 -5 10 -10 23 -10 l22 -2 -22 -4 c-13 -2 -23 -8 -23 -13 0 -5 10 -11 23 -13 19 -4 18 -4 -5 -6 -26 -1 -28 2 -28 34 0 32 2 35 28 34 23 -2 24 -2 5 -6z m110 0 c-7 -2 -21 -2 -30 0 -10 3 -4 5 12 5 17 0 24 -2 18 -5z m50 0 c-27 -5 -31 -22 -5 -24 16 -1 16 -2 0 -6 -25 -6 -22 -21 5 -26 19 -4 18 -4 -5 -6 -26 -1 -28 2 -28 34 0 32 2 35 28 34 23 -2 24 -2 5 -6z m84 1 c-3 -3 -12 -4 -19 -1 -8 3 -5 6 6 6 11 1 17 -2 13 -5z m76 -18 c3 23 4 21 5 -11 l1 -40 -24 27 -24 28 -4 -28 c-3 -19 -4 -16 -5 13 l-1 40 24 -29 23 -29 5 29z m34 -28 c-2 -13 -4 -5 -4 17 -1 22 1 32 4 23 2 -10 2 -28 0 -40z m53 45 c-8 -4 -21 -13 -28 -22 -11 -14 -11 -13 -2 7 6 12 18 22 28 21 14 0 14 -2 2 -6z m70 -23 c10 0 21 6 23 13 3 6 5 -4 5 -23 0 -19 -2 -27 -5 -17 -2 9 -13 17 -23 17 -10 0 -21 -8 -23 -17 -3 -10 -5 0 -5 22 0 22 2 32 5 23 2 -10 13 -18 23 -18z m73 23 c-13 -2 -23 -9 -23 -14 0 -5 10 -10 23 -10 l22 -2 -22 -4 c-13 -2 -23 -8 -23 -13 0 -5 10 -11 23 -13 19 -4 18 -4 -5 -6 -24 -1 -28 3 -28 27 0 34 7 42 34 41 19 -2 19 -2 -1 -6z m-1506 -50 c-3 -10 -5 -2 -5 17 0 19 2 27 5 18 2 -10 2 -26 0 -35z m467 26 l14 -21 5 23 c3 17 5 14 5 -11 l1 -35 -24 29 -23 29 -5 -29 -4 -29 -2 33 c-1 37 11 41 33 11z m113 -11 c-3 -7 -5 -2 -5 12 0 14 2 19 5 13 2 -7 2 -19 0 -25z m46 -19 c-6 -6 -7 3 -4 23 4 28 6 29 9 9 2 -13 0 -27 -5 -32z m210 28 c4 15 5 14 6 -4 2 -34 -12 -33 -38 1 l-25 31 26 -23 c24 -22 27 -22 31 -5z m-539 -23 c3 -8 2 -12 -4 -9 -6 3 -10 10 -10 16 0 14 7 11 14 -7z"/>
<path d="M8885 6150 c3 -5 8 -10 11 -10 2 0 4 5 4 10 0 6 -5 10 -11 10 -5 0 -7 -4 -4 -10z"/>
<path d="M8933 6075 c0 -8 7 -15 15 -15 12 0 12 3 2 15 -7 8 -13 15 -15 15 -1 0 -2 -7 -2 -15z"/>
<path d="M5515 6556 c-78 -26 -620 -239 -629 -247 -6 -5 21 -85 64 -196 40 -103 74 -190 76 -192 4 -4 591 223 645 250 113 56 152 203 81 304 -52 74 -154 109 -237 81z"/>
<path d="M5790 5945 c-41 -11 -660 -252 -668 -259 -6 -7 121 -326 130 -326 19 0 675 261 698 278 33 24 70 98 70 141 0 55 -36 118 -83 145 -55 31 -92 37 -147 21z"/>
<path d="M4090 6000 c-30 -9 -574 -221 -579 -226 -3 -3 186 -492 199 -513 9 -15 575 205 634 246 27 19 52 50 73 92 28 53 33 73 33 132 0 117 -49 197 -152 248 -49 25 -73 31 -122 30 -34 0 -72 -4 -86 -9z"/>
<path d="M3767 4278 c-9 -7 -20 -27 -23 -45 -5 -26 -1 -37 19 -57 31 -31 56 -33 88 -8 64 53 -17 159 -84 110z"/>
<path d="M2773 3890 c-26 -11 -29 -28 -9 -55 14 -19 15 -19 51 -2 67 32 27 86 -42 57z"/>
<path d="M7830 3654 l0 -115 151 3 151 3 29 33 c34 37 40 102 13 140 -30 44 -64 52 -209 52 l-135 0 0 -116z"/>
<path d="M8430 3685 l0 -85 155 0 c152 0 156 1 180 25 17 16 25 35 25 60 0 25 -8 44 -25 60 -24 24 -28 25 -180 25 l-155 0 0 -85z"/>
<path d="M8430 3425 l0 -75 158 0 c145 0 160 2 180 20 32 30 30 82 -4 109 -24 19 -40 21 -180 21 l-154 0 0 -75z"/>
<path d="M2468 3773 c-21 -5 -22 -10 -7 -51 10 -28 13 -30 37 -21 38 14 54 37 41 60 -9 18 -33 22 -71 12z"/>
<path d="M5320 1395 c0 -303 3 -465 10 -465 7 0 10 162 10 465 0 303 -3 465 -10 465 -7 0 -10 -162 -10 -465z"/>
<path d="M3600 1395 l0 -395 65 0 65 0 0 120 0 120 134 0 133 0 79 -120 79 -120 78 0 c42 0 77 2 77 5 0 3 -31 52 -68 108 -103 153 -100 141 -47 171 49 29 95 89 115 149 18 58 9 155 -21 213 -28 55 -100 115 -159 133 -23 7 -130 11 -284 11 l-246 0 0 -395z m484 264 c51 -14 91 -55 107 -108 11 -37 10 -47 -7 -89 -12 -28 -32 -55 -53 -69 -32 -22 -43 -23 -217 -23 l-184 0 0 150 0 150 158 0 c86 0 175 -5 196 -11z"/>
<path d="M4370 1395 l0 -395 273 0 273 0 55 28 c35 18 64 42 84 70 27 40 30 51 30 122 0 71 -3 82 -31 122 l-30 43 30 42 c23 33 31 57 34 103 8 107 -41 193 -133 236 -49 23 -58 24 -317 24 l-268 0 0 -395z m519 262 c79 -28 101 -122 42 -181 l-31 -31 -200 -3 -200 -3 0 115 0 116 178 -1 c110 0 190 -5 211 -12z m16 -351 c40 -17 69 -67 60 -103 -3 -14 -17 -36 -30 -49 -24 -24 -26 -24 -230 -24 l-205 0 0 95 0 95 185 0 c138 0 194 -4 220 -14z"/>
<path d="M2959 1399 c-107 -209 -196 -385 -197 -390 -3 -6 28 -9 74 -7 l78 3 122 239 122 238 115 -223 c64 -123 119 -232 122 -241 6 -15 20 -18 87 -18 l79 0 -198 390 c-109 214 -201 390 -204 390 -3 0 -93 -171 -200 -381z"/>
<path d="M5460 1645 c0 -69 3 -85 15 -85 10 0 15 10 15 30 0 27 3 30 31 30 46 0 69 16 69 50 0 38 -32 60 -87 60 l-43 0 0 -85z m95 25 c0 -21 -5 -26 -32 -28 -31 -3 -33 -1 -33 28 0 29 2 31 33 28 27 -2 32 -7 32 -28z"/>
<path d="M5620 1645 l0 -85 66 0 c48 0 65 3 62 13 -3 6 -25 13 -51 15 -39 3 -47 6 -47 23 0 16 7 19 40 19 29 0 40 4 40 15 0 11 -11 15 -40 15 -33 0 -40 3 -40 19 0 17 8 20 47 23 26 2 48 9 51 16 3 9 -14 12 -62 12 l-66 0 0 -85z"/>
<path d="M5780 1645 c0 -69 3 -85 15 -85 10 0 15 10 15 30 0 23 5 30 19 30 11 0 29 -13 41 -30 12 -16 28 -30 36 -30 13 0 12 6 -5 33 -20 32 -20 33 -1 45 27 16 25 57 -2 76 -13 9 -43 16 -70 16 l-48 0 0 -85z m106 40 c9 -23 -15 -45 -47 -45 -26 0 -29 4 -29 30 0 28 3 30 35 30 23 0 38 -6 41 -15z"/>
<path d="M5960 1645 c0 -50 4 -85 10 -85 6 0 10 35 10 85 0 50 -4 85 -10 85 -6 0 -10 -35 -10 -85z"/>
<path d="M6030 1716 c0 -10 14 -16 45 -18 l45 -3 -45 -55 c-25 -30 -45 -61 -45 -67 0 -9 19 -13 65 -13 37 0 65 4 65 10 0 6 -20 10 -45 10 -25 0 -45 3 -45 7 0 4 20 33 45 64 25 32 45 62 45 68 0 7 -25 11 -65 11 -50 0 -65 -3 -65 -14z"/>
<path d="M6200 1645 c0 -69 3 -85 15 -85 12 0 15 16 15 85 0 69 -3 85 -15 85 -12 0 -15 -16 -15 -85z"/>
<path d="M6280 1645 l0 -85 60 0 c47 0 60 3 60 15 0 11 -12 15 -50 15 -43 0 -50 3 -50 20 0 17 7 20 45 20 33 0 45 4 45 15 0 11 -12 15 -45 15 -38 0 -45 3 -45 20 0 17 7 20 50 20 38 0 50 4 50 15 0 12 -13 15 -60 15 l-60 0 0 -85z"/>
<path d="M5485 1455 c-53 -52 -16 -145 57 -145 35 1 76 24 59 34 -5 4 -21 1 -35 -5 -20 -10 -30 -9 -51 5 -36 24 -38 69 -3 99 21 18 32 18 71 2 12 -5 17 -3 17 8 0 35 -81 37 -115 2z"/>
<path d="M5655 1455 c-54 -53 -16 -145 60 -145 49 0 85 36 85 85 0 49 -36 85 -85 85 -25 0 -44 -8 -60 -25z m93 -11 c33 -23 27 -83 -9 -103 -24 -13 -29 -13 -53 2 -34 23 -37 78 -4 101 28 20 38 20 66 0z"/>
<path d="M5840 1395 c0 -68 3 -85 15 -85 10 0 15 15 17 57 l3 57 43 -57 c23 -31 47 -57 52 -57 6 0 10 37 10 85 0 50 -4 85 -10 85 -5 0 -10 -25 -10 -55 0 -30 -3 -55 -7 -55 -5 1 -26 25 -48 55 -56 77 -65 73 -65 -30z"/>
<path d="M6035 1456 c-22 -34 -7 -59 44 -75 44 -13 50 -21 26 -41 -12 -10 -21 -10 -41 -1 -33 14 -54 3 -29 -16 23 -16 77 -17 93 -1 7 7 12 24 12 39 0 26 -8 32 -72 53 -22 7 -23 32 -3 40 8 3 26 1 40 -4 19 -7 25 -6 25 4 0 34 -74 35 -95 2z"/>
<path d="M6180 1415 c0 -75 20 -105 70 -105 50 0 70 30 70 105 0 51 -3 65 -15 65 -12 0 -15 -14 -15 -65 0 -53 -3 -66 -19 -75 -43 -23 -71 12 -71 89 0 28 -4 51 -10 51 -6 0 -10 -28 -10 -65z"/>
<path d="M6360 1395 l0 -85 61 0 c44 0 60 3 57 13 -3 6 -23 13 -46 15 l-42 3 0 70 c0 55 -3 69 -15 69 -12 0 -15 -16 -15 -85z"/>
<path d="M6510 1395 l0 -85 60 0 c47 0 60 3 60 15 0 11 -12 15 -45 15 -38 0 -45 3 -45 20 0 17 7 20 40 20 29 0 40 4 40 15 0 11 -11 15 -40 15 -33 0 -40 3 -40 20 0 17 7 20 45 20 33 0 45 4 45 15 0 12 -13 15 -60 15 l-60 0 0 -85z"/>
<path d="M6670 1395 c0 -68 3 -85 15 -85 10 0 15 15 17 57 l3 57 44 -57 c24 -31 47 -57 52 -57 5 0 9 38 9 85 0 50 -4 85 -10 85 -5 0 -10 -25 -10 -55 0 -30 -3 -55 -7 -55 -5 0 -26 25 -47 55 -56 78 -66 73 -66 -30z"/>
<path d="M6860 1465 c0 -11 12 -15 45 -15 l46 0 -51 -61 c-27 -33 -50 -64 -50 -70 0 -5 32 -9 70 -9 40 0 70 4 70 10 0 6 -20 10 -45 10 -27 0 -45 5 -45 11 0 7 20 36 45 65 25 28 45 57 45 63 0 7 -25 11 -65 11 -51 0 -65 -3 -65 -15z"/>
<path d="M7030 1395 l0 -85 60 0 c47 0 60 3 60 15 0 11 -12 15 -50 15 -43 0 -50 3 -50 20 0 17 7 20 45 20 33 0 45 4 45 15 0 11 -12 15 -45 15 -38 0 -45 3 -45 20 0 17 7 20 50 20 38 0 50 4 50 15 0 12 -13 15 -60 15 l-60 0 0 -85z"/>
<path d="M5450 1215 c0 -10 10 -15 30 -15 l30 0 0 -70 c0 -40 4 -70 10 -70 6 0 10 30 10 69 0 68 1 70 27 73 14 2 28 9 31 16 3 9 -15 12 -67 12 -56 0 -71 -3 -71 -15z"/>
<path d="M5620 1145 l0 -85 60 0 c47 0 60 3 60 15 0 11 -12 15 -45 15 -38 0 -45 3 -45 20 0 17 7 20 40 20 29 0 40 4 40 15 0 11 -11 15 -40 15 -33 0 -40 3 -40 20 0 17 7 20 45 20 33 0 45 4 45 15 0 12 -13 15 -60 15 l-60 0 0 -85z"/>
<path d="M5813 1218 c-27 -13 -47 -60 -39 -93 14 -56 86 -84 132 -51 27 20 10 31 -25 17 -37 -16 -68 -1 -77 35 -13 53 32 98 76 74 28 -15 49 -1 25 17 -22 15 -61 16 -92 1z"/>
<path d="M5960 1145 c0 -97 18 -116 22 -24 l3 61 45 -61 c25 -33 51 -60 58 -61 9 0 12 23 12 85 0 68 -3 85 -15 85 -10 0 -15 -15 -17 -55 l-3 -56 -43 56 c-24 30 -47 55 -53 55 -5 0 -9 -38 -9 -85z"/>
<path d="M6150 1145 c0 -50 4 -85 10 -85 6 0 10 35 10 85 0 50 -4 85 -10 85 -6 0 -10 -35 -10 -85z"/>
<path d="M6246 1208 c-40 -35 -43 -78 -11 -116 30 -36 76 -43 111 -18 27 20 10 31 -25 17 -52 -22 -94 22 -76 79 9 27 50 44 76 30 27 -15 47 -1 24 17 -28 20 -71 16 -99 -9z"/>
<path d="M6400 1145 c0 -50 4 -85 10 -85 6 0 10 16 10 35 0 35 0 35 45 35 45 0 45 0 45 -35 0 -19 5 -35 10 -35 6 0 10 35 10 85 0 50 -4 85 -10 85 -5 0 -10 -16 -10 -35 0 -35 0 -35 -45 -35 -45 0 -45 0 -45 35 0 19 -4 35 -10 35 -6 0 -10 -35 -10 -85z"/>
<path d="M6580 1145 l0 -85 60 0 c47 0 60 3 60 15 0 11 -12 15 -50 15 -43 0 -50 3 -50 20 0 17 7 20 45 20 33 0 45 4 45 15 0 11 -12 15 -45 15 -38 0 -45 3 -45 20 0 17 7 20 50 20 38 0 50 4 50 15 0 12 -13 15 -60 15 l-60 0 0 -85z"/>
</g>
</svg>